<?xml version="1.0" encoding="utf-8"?>
<!-- Generator: Adobe Illustrator 24.1.0, SVG Export Plug-In . SVG Version: 6.00 Build 0)  -->
<svg version="1.1" id="Layer_1" xmlns="http://www.w3.org/2000/svg" xmlns:xlink="http://www.w3.org/1999/xlink" x="0px" y="0px"
	 viewBox="0 0 15.4 15.5" style="enable-background:new 0 0 15.4 15.5;" xml:space="preserve">
<style type="text/css">
	.st0{fill:none;stroke:#000000;stroke-miterlimit:10;}
</style>
<path class="st0" d="M14.4,7.8c0,2-0.9,3.8-2.3,5c-1.2,1-2.7,1.6-4.3,1.6c-1.7,0-3.2-0.6-4.3-1.6c-1.4-1.2-2.3-3-2.3-5
	c0-3.7,3-6.6,6.6-6.6C11.4,1.2,14.4,4.2,14.4,7.8z"/>
<circle class="st0" cx="7.8" cy="6.2" r="2.6"/>
<path class="st0" d="M12.1,12.8c-1.2,1-2.7,1.6-4.3,1.6c-1.7,0-3.2-0.6-4.3-1.6c0.2-2.3,2-4,4.3-4C10.1,8.8,11.9,10.6,12.1,12.8z"/>
</svg>
