<?xml version="1.0" encoding="utf-8"?>
<!-- Generator: Adobe Illustrator 24.1.0, SVG Export Plug-In . SVG Version: 6.00 Build 0)  -->
<svg version="1.1" id="Layer_1" xmlns="http://www.w3.org/2000/svg" xmlns:xlink="http://www.w3.org/1999/xlink" x="0px" y="0px"
	 viewBox="0 0 35.5 30" style="enable-background:new 0 0 35.5 30;" xml:space="preserve">
<style type="text/css">
	.st0{fill:none;stroke:#000000;stroke-miterlimit:10;}
</style>
<g>
	<path class="st0" d="M31.9,15c0,4.3-1.9,8.2-4.9,10.7c-2.6,2.1-5.8,3.4-9.2,3.4c-3.7,0-6.9-1.3-9.2-3.4c-3-2.6-4.9-6.4-4.9-10.7
		C3.6,7,10,0.8,17.8,0.8C25.5,0.8,31.9,7.3,31.9,15z"/>
	<circle class="st0" cx="17.8" cy="11.5" r="5.6"/>
	<path class="st0" d="M27,25.7c-2.6,2.1-5.8,3.4-9.2,3.4c-3.7,0-6.9-1.3-9.2-3.4c0.4-4.9,4.3-8.6,9.2-8.6S26.6,21,27,25.7z"/>
</g>
</svg>
