<?xml version="1.0" encoding="utf-8"?>
<!-- Generator: Adobe Illustrator 24.1.0, SVG Export Plug-In . SVG Version: 6.00 Build 0)  -->
<svg version="1.1" id="Layer_1" xmlns="http://www.w3.org/2000/svg" xmlns:xlink="http://www.w3.org/1999/xlink" x="0px" y="0px"
	 viewBox="0 0 360 63.9" style="enable-background:new 0 0 360 63.9;" xml:space="preserve">
<style type="text/css">
	.st0{fill:#70AB8F;}
	.st1{fill:url(#SVGID_1_);}
	.st2{fill:url(#SVGID_2_);}
</style>
<g>
	<g>
		<path class="st0" d="M113.9,29.7c-0.1,0.1-0.2,0.1-0.2,0.2c0,0-6-2.1-6.8-9.4c-0.8-7.3,3.4-9.1,1.2-12.5c0,0,0.1,0,0.2,0.1
			C110,9.1,127.1,19.1,113.9,29.7z"/>
		
			<linearGradient id="SVGID_1_" gradientUnits="userSpaceOnUse" x1="102.927" y1="17.8588" x2="115.3841" y2="17.8588" gradientTransform="matrix(0.7054 -0.7088 0.7088 0.7054 20.9369 83.9667)">
			<stop  offset="0" style="stop-color:#4E7B67"/>
			<stop  offset="1" style="stop-color:#70AB8F"/>
		</linearGradient>
		<path class="st1" d="M108.2,8c3.9,5,9.5,14,5.7,21.6c-0.1,0.1-0.2,0.1-0.2,0.2c0,0-6-2.1-6.8-9.4c-0.8-7.3,3.4-9.1,1.2-12.5
			C108.1,8,108.1,8,108.2,8z"/>
	</g>
	<g>
		<path d="M46.3,55.5V35.3l-7.9,15.1h-3.2l-7.9-15.1v20.2h-5.9V25h6.4l9,17.4L45.9,25h6.3v30.5H46.3z"/>
		<path d="M58.1,29.8v-5.7h5.8v5.7H58.1z M58.1,55.5V33h5.8v22.5H58.1z"/>
		<path d="M77.6,56c-1.9,0-3.7-0.3-5.6-0.9c-1.8-0.6-3.4-1.5-4.6-2.6l2.2-3.6c1.4,1,2.7,1.7,4,2.2c1.3,0.5,2.6,0.8,3.9,0.8
			c1.1,0,2.1-0.2,2.7-0.6c0.7-0.4,1-1,1-1.9c0-0.8-0.4-1.4-1.2-1.8c-0.8-0.4-2-0.8-3.8-1.3c-1.5-0.4-2.7-0.8-3.7-1.2
			c-1-0.4-1.9-0.8-2.5-1.3c-0.6-0.5-1.1-1-1.4-1.6c-0.3-0.6-0.4-1.4-0.4-2.2c0-1.1,0.2-2.2,0.7-3.1c0.4-0.9,1.1-1.7,1.9-2.3
			c0.8-0.6,1.7-1.1,2.8-1.5c1.1-0.3,2.2-0.5,3.5-0.5c1.7,0,3.3,0.2,4.8,0.7c1.5,0.5,2.8,1.3,4.1,2.4l-2.3,3.5
			c-1.1-0.9-2.3-1.5-3.3-1.9c-1.1-0.4-2.1-0.6-3.2-0.6c-1,0-1.8,0.2-2.5,0.6c-0.7,0.4-1,1-1,1.9c0,0.4,0.1,0.7,0.2,1
			c0.2,0.3,0.4,0.5,0.8,0.7s0.8,0.4,1.4,0.6c0.6,0.2,1.3,0.4,2.1,0.6c1.5,0.4,2.9,0.8,4,1.2c1.1,0.4,2,0.9,2.7,1.4
			c0.7,0.5,1.2,1.1,1.5,1.8c0.3,0.7,0.5,1.5,0.5,2.4c0,2.2-0.8,4-2.5,5.2C82.6,55.3,80.4,56,77.6,56z"/>
		<path d="M98.9,56c-1.9,0-3.7-0.3-5.6-0.9c-1.8-0.6-3.4-1.5-4.6-2.6l2.2-3.6c1.4,1,2.7,1.7,4,2.2c1.3,0.5,2.6,0.8,3.9,0.8
			c1.1,0,2.1-0.2,2.7-0.6c0.7-0.4,1-1,1-1.9c0-0.8-0.4-1.4-1.2-1.8c-0.8-0.4-2-0.8-3.8-1.3c-1.5-0.4-2.7-0.8-3.7-1.2
			c-1-0.4-1.9-0.8-2.5-1.3c-0.6-0.5-1.1-1-1.4-1.6c-0.3-0.6-0.4-1.4-0.4-2.2c0-1.1,0.2-2.2,0.7-3.1c0.4-0.9,1.1-1.7,1.9-2.3
			c0.8-0.6,1.7-1.1,2.8-1.5c1.1-0.3,2.2-0.5,3.5-0.5c1.7,0,3.3,0.2,4.8,0.7c1.5,0.5,2.8,1.3,4.1,2.4l-2.3,3.5
			c-1.1-0.9-2.3-1.5-3.3-1.9c-1.1-0.4-2.1-0.6-3.2-0.6c-1,0-1.8,0.2-2.5,0.6c-0.7,0.4-1,1-1,1.9c0,0.4,0.1,0.7,0.2,1
			c0.2,0.3,0.4,0.5,0.8,0.7s0.8,0.4,1.4,0.6c0.6,0.2,1.3,0.4,2.1,0.6c1.5,0.4,2.9,0.8,4,1.2c1.1,0.4,2,0.9,2.7,1.4
			c0.7,0.5,1.2,1.1,1.5,1.8c0.3,0.7,0.5,1.5,0.5,2.4c0,2.2-0.8,4-2.5,5.2C104,55.3,101.8,56,98.9,56z"/>
		<path d="M111.8,55.5V33h5.8v22.5H111.8z"/>
		<path d="M133.2,56c-1.8,0-3.5-0.3-4.9-0.9c-1.5-0.6-2.7-1.5-3.7-2.6c-1-1.1-1.8-2.3-2.3-3.7c-0.5-1.4-0.8-2.9-0.8-4.4
			c0-1.6,0.3-3.1,0.8-4.5c0.5-1.4,1.3-2.6,2.3-3.7c1-1.1,2.3-1.9,3.7-2.6s3.1-0.9,4.9-0.9c1.8,0,3.5,0.3,4.9,0.9
			c1.4,0.6,2.7,1.5,3.7,2.6c1,1.1,1.8,2.3,2.3,3.7c0.5,1.4,0.8,2.9,0.8,4.5c0,1.5-0.3,3-0.8,4.4c-0.5,1.4-1.3,2.6-2.3,3.7
			c-1,1.1-2.2,1.9-3.7,2.6C136.7,55.6,135,56,133.2,56z M127.3,44.3c0,1,0.2,1.9,0.5,2.7c0.3,0.8,0.7,1.5,1.2,2.1
			c0.5,0.6,1.2,1.1,1.9,1.4c0.7,0.3,1.5,0.5,2.3,0.5c0.8,0,1.6-0.2,2.3-0.5c0.7-0.3,1.3-0.8,1.9-1.4c0.5-0.6,0.9-1.3,1.2-2.2
			s0.5-1.7,0.5-2.8c0-1-0.2-1.9-0.5-2.7s-0.7-1.5-1.2-2.2c-0.5-0.6-1.2-1.1-1.9-1.4c-0.7-0.3-1.5-0.5-2.3-0.5
			c-0.8,0-1.6,0.2-2.3,0.5c-0.7,0.3-1.3,0.8-1.9,1.4c-0.5,0.6-0.9,1.3-1.2,2.2C127.4,42.4,127.3,43.3,127.3,44.3z"/>
		<path d="M169.8,55.5H164V42.9c0-1.8-0.3-3.1-0.9-4c-0.6-0.8-1.5-1.2-2.6-1.2c-0.6,0-1.2,0.1-1.8,0.3c-0.6,0.2-1.2,0.6-1.7,1
			c-0.5,0.4-1,0.9-1.4,1.5c-0.4,0.6-0.7,1.2-0.9,1.9v13.2h-5.8V33h5.2v4.2c0.8-1.4,2-2.6,3.6-3.4c1.6-0.8,3.4-1.2,5.3-1.2
			c1.4,0,2.6,0.3,3.4,0.8c0.9,0.5,1.6,1.2,2.1,2c0.5,0.8,0.8,1.8,1,2.8c0.2,1.1,0.3,2.1,0.3,3.2V55.5z"/>
		<path d="M210.3,47.6c0,1.3-0.3,2.4-0.8,3.4c-0.5,1-1.2,1.8-2.1,2.5c-0.9,0.7-2,1.2-3.1,1.5c-1.2,0.3-2.5,0.5-3.8,0.5h-14.8V25
			h16.4c1.1,0,2,0.2,2.9,0.7c0.9,0.5,1.6,1.1,2.2,1.8s1.1,1.6,1.4,2.5c0.3,0.9,0.5,1.9,0.5,2.8c0,1.5-0.4,2.9-1.1,4.2
			c-0.7,1.3-1.8,2.3-3.3,2.9c1.8,0.5,3.1,1.4,4.2,2.8C209.8,44,210.3,45.6,210.3,47.6z M191.7,30.1v7.7h7.9c1,0,1.9-0.3,2.6-1
			c0.7-0.7,1.1-1.6,1.1-2.8c0-1.2-0.3-2.1-1-2.8s-1.4-1-2.4-1H191.7z M204.4,46.5c0-0.5-0.1-1.1-0.3-1.6c-0.2-0.5-0.4-0.9-0.8-1.3
			c-0.3-0.4-0.7-0.7-1.1-0.9s-0.9-0.3-1.4-0.3h-9.1v8h8.8c0.5,0,1.1-0.1,1.5-0.3c0.5-0.2,0.9-0.5,1.2-0.8c0.3-0.4,0.6-0.8,0.8-1.3
			C204.3,47.6,204.4,47.1,204.4,46.5z"/>
		<path d="M224.8,56c-1.8,0-3.5-0.3-4.9-0.9c-1.5-0.6-2.7-1.5-3.7-2.6c-1-1.1-1.8-2.3-2.3-3.7c-0.5-1.4-0.8-2.9-0.8-4.4
			c0-1.6,0.3-3.1,0.8-4.5c0.5-1.4,1.3-2.6,2.3-3.7c1-1.1,2.3-1.9,3.7-2.6s3.1-0.9,4.9-0.9c1.8,0,3.5,0.3,4.9,0.9
			c1.4,0.6,2.7,1.5,3.7,2.6c1,1.1,1.8,2.3,2.3,3.7c0.5,1.4,0.8,2.9,0.8,4.5c0,1.5-0.3,3-0.8,4.4c-0.5,1.4-1.3,2.6-2.3,3.7
			c-1,1.1-2.2,1.9-3.7,2.6C228.3,55.6,226.7,56,224.8,56z M218.9,44.3c0,1,0.2,1.9,0.5,2.7c0.3,0.8,0.7,1.5,1.2,2.1
			c0.5,0.6,1.2,1.1,1.9,1.4c0.7,0.3,1.5,0.5,2.3,0.5s1.6-0.2,2.3-0.5c0.7-0.3,1.3-0.8,1.9-1.4c0.5-0.6,0.9-1.3,1.2-2.2
			c0.3-0.8,0.5-1.7,0.5-2.8c0-1-0.2-1.9-0.5-2.7c-0.3-0.8-0.7-1.5-1.2-2.2c-0.5-0.6-1.2-1.1-1.9-1.4c-0.7-0.3-1.5-0.5-2.3-0.5
			s-1.6,0.2-2.3,0.5c-0.7,0.3-1.3,0.8-1.9,1.4c-0.5,0.6-0.9,1.3-1.2,2.2C219.1,42.4,218.9,43.3,218.9,44.3z"/>
		<path d="M250.9,56c-1.8,0-3.5-0.3-4.9-0.9c-1.5-0.6-2.7-1.5-3.7-2.6c-1-1.1-1.8-2.3-2.3-3.7c-0.5-1.4-0.8-2.9-0.8-4.4
			c0-1.6,0.3-3.1,0.8-4.5c0.5-1.4,1.3-2.6,2.3-3.7c1-1.1,2.3-1.9,3.7-2.6s3.1-0.9,4.9-0.9c1.8,0,3.5,0.3,4.9,0.9
			c1.4,0.6,2.7,1.5,3.7,2.6c1,1.1,1.8,2.3,2.3,3.7c0.5,1.4,0.8,2.9,0.8,4.5c0,1.5-0.3,3-0.8,4.4c-0.5,1.4-1.3,2.6-2.3,3.7
			c-1,1.1-2.2,1.9-3.7,2.6C254.4,55.6,252.7,56,250.9,56z M245,44.3c0,1,0.2,1.9,0.5,2.7c0.3,0.8,0.7,1.5,1.2,2.1
			c0.5,0.6,1.2,1.1,1.9,1.4c0.7,0.3,1.5,0.5,2.3,0.5s1.6-0.2,2.3-0.5c0.7-0.3,1.3-0.8,1.9-1.4c0.5-0.6,0.9-1.3,1.2-2.2
			c0.3-0.8,0.5-1.7,0.5-2.8c0-1-0.2-1.9-0.5-2.7c-0.3-0.8-0.7-1.5-1.2-2.2c-0.5-0.6-1.2-1.1-1.9-1.4c-0.7-0.3-1.5-0.5-2.3-0.5
			s-1.6,0.2-2.3,0.5c-0.7,0.3-1.3,0.8-1.9,1.4c-0.5,0.6-0.9,1.3-1.2,2.2C245.2,42.4,245,43.3,245,44.3z"/>
		<path d="M282,55.5l-6.5-9.8l-3.1,3.1v6.7h-5.8V24.1h5.8v19.1l9-10.2h6.2l-8.4,9.6l9,13H282z"/>
		<path d="M299.9,56c-1.8,0-3.4-0.3-4.9-0.9c-1.5-0.6-2.7-1.5-3.7-2.5c-1-1.1-1.8-2.3-2.4-3.7c-0.6-1.4-0.8-2.9-0.8-4.4
			c0-1.6,0.3-3.1,0.8-4.5c0.5-1.4,1.3-2.7,2.4-3.7s2.3-1.9,3.8-2.6s3.1-0.9,5-0.9c1.8,0,3.5,0.3,4.9,0.9c1.4,0.6,2.7,1.5,3.7,2.5
			c1,1.1,1.8,2.3,2.3,3.7c0.5,1.4,0.8,2.9,0.8,4.4c0,0.4,0,0.7,0,1.1s0,0.6-0.1,0.9h-17.4c0.1,0.9,0.3,1.7,0.6,2.4
			c0.3,0.7,0.8,1.3,1.3,1.8c0.5,0.5,1.2,0.9,1.8,1.1c0.7,0.3,1.4,0.4,2.2,0.4c1.1,0,2.2-0.3,3.2-0.8c1-0.6,1.7-1.3,2.1-2.2l4.9,1.4
			c-0.8,1.7-2.2,3.1-4,4.2C304.6,55.4,302.4,56,299.9,56z M305.7,42.4c-0.1-1.7-0.8-3-1.9-4.1c-1.1-1-2.4-1.5-4-1.5
			c-0.8,0-1.5,0.1-2.2,0.4c-0.7,0.3-1.3,0.7-1.8,1.1c-0.5,0.5-0.9,1.1-1.3,1.8c-0.3,0.7-0.5,1.4-0.6,2.3H305.7z"/>
		<path d="M324.5,56c-1.5,0-3-0.3-4.3-0.9c-1.3-0.6-2.5-1.4-3.4-2.5c-0.9-1.1-1.7-2.3-2.2-3.7c-0.5-1.4-0.8-2.9-0.8-4.6
			c0-1.6,0.2-3.2,0.8-4.6c0.5-1.4,1.2-2.6,2.1-3.7c0.9-1.1,2-1.9,3.2-2.5c1.2-0.6,2.6-0.9,4-0.9c1.7,0,3.2,0.4,4.5,1.2
			c1.3,0.8,2.4,1.9,3.1,3.1V24.1h5.8v24.8c0,0.6,0.1,1,0.3,1.3c0.2,0.3,0.5,0.4,1,0.4v4.9c-1,0.2-1.8,0.3-2.5,0.3
			c-1,0-1.9-0.3-2.5-0.8c-0.7-0.5-1-1.2-1.1-2l-0.1-1.4c-0.8,1.4-2,2.5-3.4,3.2S326.1,56,324.5,56z M326,51c0.5,0,1.1-0.1,1.7-0.3
			c0.6-0.2,1.1-0.5,1.6-0.8c0.5-0.3,0.9-0.7,1.3-1.2c0.4-0.5,0.7-1,0.9-1.5v-5.4c-0.2-0.6-0.6-1.2-1-1.7c-0.4-0.5-0.9-1-1.4-1.4
			c-0.5-0.4-1.1-0.7-1.7-0.9c-0.6-0.2-1.2-0.3-1.7-0.3c-0.9,0-1.7,0.2-2.4,0.6c-0.7,0.4-1.4,0.9-1.9,1.5s-0.9,1.4-1.2,2.2
			c-0.3,0.8-0.4,1.7-0.4,2.6c0,0.9,0.2,1.8,0.5,2.6c0.3,0.8,0.7,1.5,1.3,2.1c0.5,0.6,1.2,1.1,2,1.4C324.3,50.9,325.1,51,326,51z"/>
	</g>
	<g>
		<path class="st0" d="M114,29.9c-0.1,0-0.2,0-0.3,0c0,0-2.8-5.7,1.8-11.4c4.6-5.7,8.9-4,9.8-8c0,0,0,0.1,0,0.2
			C125.8,12.6,130.7,31.8,114,29.9z"/>
		<linearGradient id="SVGID_2_" gradientUnits="userSpaceOnUse" x1="112.8398" y1="20.1849" x2="125.2969" y2="20.1849">
			<stop  offset="0" style="stop-color:#4E7B67"/>
			<stop  offset="1" style="stop-color:#70AB8F"/>
		</linearGradient>
		<path class="st2" d="M125.3,10.6c-0.8,6.3-3.3,16.6-11.3,19.3c-0.1,0-0.2,0-0.3,0c0,0-2.8-5.7,1.8-11.4c4.6-5.7,8.9-4,9.8-8
			C125.2,10.5,125.3,10.5,125.3,10.6z"/>
	</g>
</g>
</svg>
